<svg xmlns="http://www.w3.org/2000/svg" width="112.5" viewBox="0 0 112.5 112.5" height="112.5" version="1.0"><defs><clipPath id="a"><path d="M 33.75 33.75 L 78.75 33.75 L 78.75 78.75 L 33.75 78.75 Z M 33.75 33.75"/></clipPath></defs><g clip-path="url(#a)"><path fill="#1A4789" d="M 78.75 71.90625 C 78.75 75.683594 75.6875 78.746094 71.914062 78.746094 L 40.589844 78.746094 C 36.8125 78.746094 33.75 75.683594 33.75 71.90625 L 33.75 40.585938 C 33.75 36.808594 36.8125 33.746094 40.589844 33.746094 L 71.914062 33.746094 C 75.6875 33.746094 78.75 36.808594 78.75 40.585938 Z M 78.75 71.90625"/></g><path fill="#FFF" d="M 63.566406 59.742188 L 64.296875 54.101562 L 58.707031 54.101562 L 58.707031 50.496094 C 58.707031 48.863281 59.164062 47.75 61.507812 47.75 L 64.492188 47.75 L 64.492188 42.703125 C 63.976562 42.632812 62.203125 42.480469 60.136719 42.480469 C 55.832031 42.480469 52.882812 45.109375 52.882812 49.9375 L 52.882812 54.101562 L 48.011719 54.101562 L 48.011719 59.742188 L 52.882812 59.742188 L 52.882812 74.21875 L 58.707031 74.21875 L 58.707031 59.742188 Z M 63.566406 59.742188"/></svg>