<svg xmlns="http://www.w3.org/2000/svg" width="112.5" viewBox="0 0 112.5 112.5" height="112.5" version="1.0"><defs><clipPath id="a"><path d="M 0 0 L 112.003906 0 L 112.003906 112.003906 L 0 112.003906 Z M 0 0"/></clipPath><clipPath id="b"><path d="M 33.75 34 L 78.75 34 L 78.75 78.75 L 33.75 78.75 Z M 33.75 34"/></clipPath></defs><g clip-path="url(#a)"><path fill="#FFF" d="M 0 0 L 112.5 0 L 112.5 112.5 L 0 112.5 L 0 0"/></g><g clip-path="url(#b)"><path d="M 56.25 34.125 C 43.824219 34.125 33.75 44.199219 33.75 56.625 C 33.75 67.167969 41.011719 75.988281 50.796875 78.429688 C 50.691406 78.128906 50.625 77.773438 50.625 77.339844 L 50.625 73.492188 C 49.710938 73.492188 48.183594 73.492188 47.796875 73.492188 C 46.257812 73.492188 44.890625 72.832031 44.226562 71.601562 C 43.488281 70.234375 43.359375 68.144531 41.535156 66.863281 C 40.992188 66.4375 41.40625 65.953125 42.03125 66.019531 C 43.183594 66.34375 44.140625 67.136719 45.039062 68.308594 C 45.9375 69.484375 46.359375 69.75 48.03125 69.75 C 48.84375 69.75 50.058594 69.703125 51.203125 69.523438 C 51.816406 67.964844 52.878906 66.523438 54.179688 65.847656 C 46.6875 65.074219 43.113281 61.347656 43.113281 56.289062 C 43.113281 54.109375 44.039062 52 45.617188 50.226562 C 45.097656 48.464844 44.449219 44.867188 45.816406 43.5 C 49.1875 43.5 51.226562 45.6875 51.714844 46.277344 C 53.394531 45.703125 55.238281 45.375 57.179688 45.375 C 59.121094 45.375 60.972656 45.703125 62.65625 46.28125 C 63.140625 45.695312 65.179688 43.5 68.558594 43.5 C 69.933594 44.871094 69.273438 48.480469 68.75 50.238281 C 70.316406 52.011719 71.242188 54.113281 71.242188 56.289062 C 71.242188 61.34375 67.671875 65.070312 60.1875 65.84375 C 62.25 66.917969 63.75 69.9375 63.75 72.210938 L 63.75 77.339844 C 63.75 77.53125 63.707031 77.671875 63.683594 77.839844 C 72.453125 74.765625 78.75 66.441406 78.75 56.625 C 78.75 44.199219 68.675781 34.125 56.25 34.125 Z M 56.25 34.125"/></g></svg>