<svg xmlns="http://www.w3.org/2000/svg" width="112.5" viewBox="0 0 112.5 112.5" height="112.5" version="1.0"><defs><clipPath id="a"><path d="M 33.75 33.75 L 78.75 33.75 L 78.75 78.75 L 33.75 78.75 Z M 33.75 33.75"/></clipPath></defs><g clip-path="url(#a)"><path fill="#0077B5" d="M 40.5 33.75 L 72 33.75 C 72.441406 33.75 72.882812 33.792969 73.316406 33.878906 C 73.75 33.964844 74.171875 34.09375 74.582031 34.265625 C 74.992188 34.433594 75.382812 34.640625 75.75 34.886719 C 76.117188 35.132812 76.460938 35.414062 76.773438 35.726562 C 77.085938 36.039062 77.367188 36.382812 77.613281 36.75 C 77.859375 37.117188 78.066406 37.507812 78.234375 37.917969 C 78.40625 38.328125 78.535156 38.75 78.621094 39.183594 C 78.707031 39.617188 78.75 40.058594 78.75 40.5 L 78.75 72 C 78.75 72.441406 78.707031 72.882812 78.621094 73.316406 C 78.535156 73.75 78.40625 74.171875 78.234375 74.582031 C 78.066406 74.992188 77.859375 75.382812 77.613281 75.75 C 77.367188 76.117188 77.085938 76.460938 76.773438 76.773438 C 76.460938 77.085938 76.117188 77.367188 75.75 77.613281 C 75.382812 77.859375 74.992188 78.066406 74.582031 78.234375 C 74.171875 78.40625 73.75 78.535156 73.316406 78.621094 C 72.882812 78.707031 72.441406 78.75 72 78.75 L 40.5 78.75 C 40.058594 78.75 39.617188 78.707031 39.183594 78.621094 C 38.75 78.535156 38.328125 78.40625 37.917969 78.234375 C 37.507812 78.066406 37.117188 77.859375 36.75 77.613281 C 36.382812 77.367188 36.039062 77.085938 35.726562 76.773438 C 35.414062 76.460938 35.132812 76.117188 34.886719 75.75 C 34.640625 75.382812 34.433594 74.992188 34.265625 74.582031 C 34.09375 74.171875 33.964844 73.75 33.878906 73.316406 C 33.792969 72.882812 33.75 72.441406 33.75 72 L 33.75 40.5 C 33.75 40.058594 33.792969 39.617188 33.878906 39.183594 C 33.964844 38.75 34.09375 38.328125 34.265625 37.917969 C 34.433594 37.507812 34.640625 37.117188 34.886719 36.75 C 35.132812 36.382812 35.414062 36.039062 35.726562 35.726562 C 36.039062 35.414062 36.382812 35.132812 36.75 34.886719 C 37.117188 34.640625 37.507812 34.433594 37.917969 34.265625 C 38.328125 34.09375 38.75 33.964844 39.183594 33.878906 C 39.617188 33.792969 40.058594 33.75 40.5 33.75 Z M 40.5 33.75"/></g><path fill="#FFF" d="M 49.480469 45.878906 C 49.480469 46.308594 49.398438 46.726562 49.234375 47.125 C 49.070312 47.523438 48.835938 47.875 48.53125 48.179688 C 48.226562 48.484375 47.875 48.71875 47.476562 48.882812 C 47.078125 49.046875 46.660156 49.128906 46.230469 49.128906 C 45.800781 49.128906 45.382812 49.046875 44.984375 48.882812 C 44.585938 48.71875 44.234375 48.484375 43.929688 48.179688 C 43.625 47.875 43.390625 47.523438 43.226562 47.125 C 43.0625 46.726562 42.976562 46.308594 42.976562 45.878906 C 42.976562 45.449219 43.0625 45.03125 43.226562 44.632812 C 43.390625 44.234375 43.625 43.882812 43.929688 43.578125 C 44.234375 43.273438 44.585938 43.039062 44.984375 42.875 C 45.382812 42.710938 45.800781 42.625 46.230469 42.625 C 46.660156 42.625 47.078125 42.710938 47.476562 42.875 C 47.875 43.039062 48.226562 43.273438 48.53125 43.578125 C 48.835938 43.882812 49.070312 44.234375 49.234375 44.632812 C 49.398438 45.03125 49.480469 45.449219 49.480469 45.878906 Z M 49.480469 45.878906"/><path transform="matrix(.0879 0 0 .0879 33.75 33.75)" fill="#FFF" d="M 244.000034 194.000034 L 244.000034 392.000054 M 142.000023 194.000034 L 142.000023 392.000054" stroke="#FFF" stroke-width="66"/><path fill="#FFF" d="M 58.007812 58.535156 C 58.007812 56.777344 59.148438 55.019531 61.171875 55.019531 C 63.28125 55.019531 64.070312 56.601562 64.070312 58.972656 L 64.070312 68.203125 L 69.871094 68.203125 L 69.871094 58.269531 C 69.871094 52.910156 67.058594 50.449219 63.191406 50.449219 C 60.203125 50.449219 58.710938 52.117188 58.007812 53.261719"/></svg>