<svg xmlns="http://www.w3.org/2000/svg" width="112.5" viewBox="0 0 112.5 112.5" height="112.5" version="1.0"><path fill="#494646" d="M 87.894531 14.945312 C 87.832031 14.933594 87.769531 14.929688 87.703125 14.929688 L 87.503906 14.929688 C 87.4375 14.929688 87.375 14.933594 87.3125 14.945312 C 78.390625 15.445312 76.539062 21.195312 76.464844 21.445312 C 76.378906 21.734375 76.417969 22.054688 76.582031 22.3125 L 81.714844 30.5 C 81.308594 30.644531 81.011719 31.023438 81.011719 31.484375 L 81.011719 36.359375 C 81.011719 36.941406 81.484375 37.414062 82.066406 37.414062 L 82.925781 37.414062 L 84.832031 95.199219 C 84.871094 96.460938 84.96875 99.410156 87.703125 99.410156 C 90.4375 99.410156 90.535156 96.457031 90.574219 95.199219 L 92.480469 37.414062 L 93.339844 37.414062 C 93.921875 37.414062 94.398438 36.941406 94.398438 36.359375 L 94.398438 31.484375 C 94.398438 30.960938 94.011719 30.546875 93.511719 30.464844 L 98.625 22.3125 C 98.789062 22.054688 98.832031 21.738281 98.742188 21.445312 C 98.667969 21.195312 96.816406 15.445312 87.894531 14.945312 Z M 92.285156 32.542969 L 92.285156 35.304688 L 83.121094 35.304688 L 83.121094 32.542969 Z M 88.464844 95.128906 C 88.394531 97.296875 88.027344 97.296875 87.703125 97.296875 C 87.378906 97.296875 87.015625 97.296875 86.941406 95.128906 L 85.039062 37.417969 L 90.367188 37.417969 Z M 91.042969 30.429688 L 84.164062 30.429688 L 78.65625 21.652344 C 79.222656 20.492188 81.335938 17.339844 87.601562 17.046875 C 93.878906 17.339844 95.988281 20.5 96.550781 21.648438 Z M 91.042969 30.429688"/><path fill="#494646" d="M 74.058594 95.761719 L 74.058594 18.574219 C 74.058594 16.5625 72.421875 14.925781 70.410156 14.925781 L 17.691406 14.929688 C 15.679688 14.929688 14.042969 16.566406 14.042969 18.574219 L 14.042969 95.761719 C 14.042969 97.773438 15.679688 99.40625 17.691406 99.40625 L 70.414062 99.40625 C 72.421875 99.40625 74.058594 97.773438 74.058594 95.761719 Z M 32.183594 29.007812 L 55.917969 29.007812 C 58.546875 29.007812 60.683594 26.871094 60.683594 24.242188 L 60.683594 22.863281 L 65.699219 22.863281 L 65.699219 90.769531 L 22.402344 90.769531 L 22.402344 22.863281 L 27.421875 22.863281 L 27.421875 24.242188 C 27.421875 26.871094 29.558594 29.007812 32.1875 29.007812 Z M 58.570312 24.242188 C 58.570312 25.707031 57.378906 26.898438 55.917969 26.898438 L 32.183594 26.898438 C 30.71875 26.898438 29.53125 25.707031 29.53125 24.242188 L 29.53125 22.863281 L 58.570312 22.863281 Z M 29.53125 20.75 L 29.53125 17.039062 L 58.570312 17.039062 L 58.570312 20.75 Z M 16.152344 95.761719 L 16.152344 18.574219 C 16.152344 17.726562 16.84375 17.039062 17.6875 17.039062 L 27.417969 17.039062 L 27.417969 20.75 L 21.347656 20.75 C 20.765625 20.75 20.289062 21.222656 20.289062 21.808594 L 20.289062 91.824219 C 20.289062 92.410156 20.761719 92.882812 21.347656 92.882812 L 66.753906 92.882812 C 67.335938 92.882812 67.8125 92.410156 67.8125 91.824219 L 67.8125 21.804688 C 67.8125 21.222656 67.339844 20.75 66.753906 20.75 L 60.683594 20.75 L 60.683594 17.039062 L 70.410156 17.039062 C 71.257812 17.039062 71.945312 17.726562 71.945312 18.574219 L 71.945312 95.757812 C 71.945312 96.605469 71.257812 97.292969 70.410156 97.292969 L 17.6875 97.296875 C 16.84375 97.296875 16.152344 96.605469 16.152344 95.761719 Z M 16.152344 95.761719"/><path fill="#494646" d="M 30.285156 56.59375 C 30.554688 56.59375 30.824219 56.492188 31.03125 56.285156 L 33.707031 53.609375 C 34.707031 54.421875 35.78125 55.121094 36.929688 55.675781 L 35.445312 58.921875 C 35.203125 59.453125 35.4375 60.078125 35.96875 60.320312 C 36.109375 60.386719 36.257812 60.417969 36.40625 60.417969 C 36.804688 60.417969 37.191406 60.1875 37.367188 59.800781 L 38.886719 56.476562 C 40.199219 56.910156 41.570312 57.160156 42.972656 57.25 L 42.972656 60.824219 C 42.972656 61.410156 43.445312 61.882812 44.027344 61.882812 C 44.609375 61.882812 45.082031 61.410156 45.082031 60.824219 L 45.082031 57.25 C 46.5 57.160156 47.882812 56.90625 49.207031 56.464844 L 50.734375 59.800781 C 50.910156 60.191406 51.292969 60.417969 51.695312 60.417969 C 51.839844 60.417969 51.988281 60.386719 52.132812 60.324219 C 52.664062 60.082031 52.898438 59.457031 52.652344 58.921875 L 51.160156 55.65625 C 52.304688 55.097656 53.378906 54.402344 54.375 53.589844 L 57.070312 56.285156 C 57.277344 56.492188 57.546875 56.597656 57.820312 56.597656 C 58.089844 56.597656 58.359375 56.492188 58.566406 56.285156 C 58.980469 55.875 58.980469 55.207031 58.566406 54.792969 L 55.917969 52.144531 C 56.109375 51.9375 56.316406 51.746094 56.5 51.53125 C 56.878906 51.085938 56.824219 50.421875 56.378906 50.042969 C 55.933594 49.664062 55.269531 49.714844 54.890625 50.164062 C 52.171875 53.359375 48.210938 55.199219 44.027344 55.199219 C 39.847656 55.199219 35.886719 53.363281 33.167969 50.164062 C 32.789062 49.714844 32.125 49.664062 31.675781 50.042969 C 31.234375 50.421875 31.179688 51.085938 31.558594 51.53125 C 31.75 51.753906 31.960938 51.957031 32.160156 52.167969 L 29.539062 54.792969 C 29.125 55.207031 29.125 55.875 29.539062 56.285156 C 29.742188 56.492188 30.015625 56.59375 30.285156 56.59375 Z M 30.285156 56.59375"/></svg>