<svg xmlns="http://www.w3.org/2000/svg" width="112.5" viewBox="0 0 112.5 112.5" height="112.5" version="1.0"><path fill="#494646" d="M 77.09375 48.890625 C 63.085938 49.75 49.035156 49.75 35.027344 48.890625 C 31.421875 48.664062 28.054688 50.382812 26.152344 53.78125 C 24.992188 55.832031 26.335938 58.59375 28.523438 58.578125 L 83.617188 58.578125 C 85.804688 58.609375 87.148438 55.847656 85.984375 53.78125 C 84.070312 50.382812 80.703125 48.664062 77.09375 48.890625 Z M 77.09375 48.890625"/><path fill="#494646" d="M 28.734375 29.78125 L 22.105469 29.78125 C 20.476562 29.78125 19.164062 31.09375 19.164062 32.722656 L 19.164062 46.15625 C 19.164062 47.785156 20.476562 49.101562 22.105469 49.101562 C 23.738281 49.101562 25.050781 47.785156 25.050781 46.15625 L 25.050781 35.667969 L 29.351562 35.667969 C 29.066406 33.703125 28.855469 31.742188 28.734375 29.78125 Z M 28.734375 29.78125"/><path fill="#494646" d="M 90.03125 29.78125 L 83.386719 29.78125 C 83.253906 31.742188 83.054688 33.691406 82.769531 35.667969 L 87.101562 35.667969 L 87.101562 46.15625 C 87.101562 47.785156 88.414062 49.101562 90.042969 49.101562 C 91.675781 49.101562 92.988281 47.785156 92.988281 46.15625 L 92.988281 32.722656 C 92.972656 31.09375 91.660156 29.78125 90.027344 29.78125 Z M 90.03125 29.78125"/><path fill="#494646" d="M 80.21875 94.546875 C 78.105469 94.050781 76.007812 93.476562 73.96875 92.738281 L 60.730469 87.953125 L 51.359375 87.953125 L 38.121094 92.738281 C 36.082031 93.476562 33.984375 94.050781 31.871094 94.546875 C 28.414062 95.378906 26.363281 96.390625 26.363281 97.476562 C 26.363281 100.269531 39.644531 102.535156 56.023438 102.535156 C 72.398438 102.535156 85.683594 100.269531 85.683594 97.476562 C 85.710938 96.390625 83.675781 95.378906 80.21875 94.546875 Z M 80.21875 94.546875"/><path fill="#494646" d="M 51.375 71.046875 L 60.746094 71.046875 L 60.746094 85.007812 L 51.375 85.007812 Z M 51.375 71.046875"/><path fill="#494646" d="M 52.835938 61.507812 L 59.265625 61.507812 L 59.265625 68.089844 L 52.835938 68.089844 Z M 52.835938 61.507812"/><path fill="#494646" d="M 35.207031 45.960938 C 42.121094 46.382812 49.125 46.59375 56.050781 46.59375 C 62.980469 46.59375 70 46.382812 76.914062 45.960938 C 77.183594 45.945312 77.457031 45.929688 77.710938 45.929688 C 80.367188 35.785156 81.257812 25.644531 80.324219 15.5 C 80.082031 12.921875 77.726562 11.09375 75.160156 11.457031 C 62.421875 13.265625 49.667969 13.265625 36.929688 11.457031 C 34.363281 11.09375 32.007812 12.921875 31.765625 15.5 C 30.832031 25.644531 31.734375 35.789062 34.378906 45.929688 C 34.664062 45.929688 34.9375 45.945312 35.207031 45.960938 Z M 35.207031 45.960938"/></svg>