<?xml version="1.0" encoding="UTF-8"?>
<svg width="700pt" height="700pt" version="1.1" viewBox="0 0 700 700" xmlns="http://www.w3.org/2000/svg" xmlns:xlink="http://www.w3.org/1999/xlink">
 <defs>
  <symbol id="l" overflow="visible">
   <path d="m29.312-1.75c-1.5117 0.78125-3.0898 1.3711-4.7344 1.7656-1.6367 0.40625-3.3398 0.60938-5.1094 0.60938-5.3125 0-9.5273-1.4844-12.641-4.4531-3.1055-2.9688-4.6562-7-4.6562-12.094s1.5508-9.125 4.6562-12.094c3.1133-2.9688 7.3281-4.4531 12.641-4.4531 1.7695 0 3.4727 0.19922 5.1094 0.59375 1.6445 0.39844 3.2227 0.99219 4.7344 1.7812v6.5938c-1.5312-1.0391-3.0391-1.8008-4.5156-2.2812-1.4805-0.48828-3.0391-0.73438-4.6719-0.73438-2.9375 0-5.2461 0.94531-6.9219 2.8281-1.6797 1.875-2.5156 4.4648-2.5156 7.7656 0 3.293 0.83594 5.8828 2.5156 7.7656 1.6758 1.875 3.9844 2.8125 6.9219 2.8125 1.6328 0 3.1914-0.23828 4.6719-0.71875 1.4766-0.48828 2.9844-1.2539 4.5156-2.2969z"/>
  </symbol>
  <symbol id="b" overflow="visible">
   <path d="m21.453-17.406c-0.67969-0.3125-1.3516-0.53906-2.0156-0.6875-0.65625-0.15625-1.3203-0.23438-1.9844-0.23438-1.9688 0-3.4844 0.63281-4.5469 1.8906-1.0547 1.2617-1.5781 3.0703-1.5781 5.4219v11.016h-7.6562v-23.922h7.6562v3.9219c0.97656-1.5625 2.1016-2.7031 3.375-3.4219 1.2812-0.71875 2.8125-1.0781 4.5938-1.0781 0.25 0 0.52344 0.011719 0.82812 0.03125 0.30078 0.023438 0.73438 0.070312 1.2969 0.14062z"/>
  </symbol>
  <symbol id="a" overflow="visible">
   <path d="m27.562-12.031v2.1875h-17.891c0.1875 1.793 0.83203 3.1367 1.9375 4.0312 1.1133 0.89844 2.6719 1.3438 4.6719 1.3438 1.6016 0 3.25-0.23438 4.9375-0.70312 1.6875-0.47656 3.4219-1.2031 5.2031-2.1719v5.8906c-1.8047 0.6875-3.6094 1.2031-5.4219 1.5469-1.8125 0.35156-3.6211 0.53125-5.4219 0.53125-4.3359 0-7.7031-1.0977-10.109-3.2969-2.3984-2.207-3.5938-5.2969-3.5938-9.2656 0-3.9062 1.1758-6.9727 3.5312-9.2031 2.3633-2.2383 5.6094-3.3594 9.7344-3.3594 3.7578 0 6.7695 1.1367 9.0312 3.4062 2.2578 2.2617 3.3906 5.2812 3.3906 9.0625zm-7.8594-2.5312c0-1.457-0.42969-2.6289-1.2812-3.5156-0.84375-0.89453-1.9492-1.3438-3.3125-1.3438-1.4922 0-2.6992 0.41797-3.625 1.25-0.91797 0.83594-1.4922 2.0391-1.7188 3.6094z"/>
  </symbol>
  <symbol id="h" overflow="visible">
   <path d="m14.391-10.766c-1.5938 0-2.793 0.27344-3.5938 0.8125-0.80469 0.54297-1.2031 1.3398-1.2031 2.3906 0 0.96875 0.32031 1.7305 0.96875 2.2812 0.64453 0.54297 1.5469 0.8125 2.7031 0.8125 1.4375 0 2.6445-0.51562 3.625-1.5469 0.98828-1.0312 1.4844-2.3203 1.4844-3.875v-0.875zm11.688-2.8906v13.656h-7.7031v-3.5469c-1.0312 1.4492-2.1875 2.5078-3.4688 3.1719s-2.8398 1-4.6719 1c-2.4805 0-4.4961-0.72266-6.0469-2.1719-1.543-1.4453-2.3125-3.3203-2.3125-5.625 0-2.8125 0.96094-4.8672 2.8906-6.1719 1.9375-1.3125 4.9688-1.9688 9.0938-1.9688h4.5156v-0.60938c0-1.207-0.48047-2.0938-1.4375-2.6562-0.94922-0.5625-2.4375-0.84375-4.4688-0.84375-1.6367 0-3.1562 0.16797-4.5625 0.5-1.4062 0.32422-2.7188 0.8125-3.9375 1.4688v-5.8281c1.6445-0.40625 3.2891-0.70703 4.9375-0.90625 1.6562-0.20703 3.3047-0.3125 4.9531-0.3125 4.3203 0 7.4375 0.85547 9.3438 2.5625 1.9141 1.6992 2.875 4.4609 2.875 8.2812z"/>
  </symbol>
  <symbol id="g" overflow="visible">
   <path d="m12.031-30.719v6.7969h7.875v5.4688h-7.875v10.141c0 1.1172 0.21875 1.8711 0.65625 2.2656 0.4375 0.38672 1.3125 0.57812 2.625 0.57812h3.9375v5.4688h-6.5625c-3.0234 0-5.1641-0.62891-6.4219-1.8906-1.2617-1.2578-1.8906-3.3984-1.8906-6.4219v-10.141h-3.7969v-5.4688h3.7969v-6.7969z"/>
  </symbol>
  <symbol id="f" overflow="visible">
   <path d="m19.953-20.422v-12.812h7.6875v33.234h-7.6875v-3.4531c-1.0547 1.4062-2.2148 2.4375-3.4844 3.0938-1.2734 0.65625-2.7422 0.98438-4.4062 0.98438-2.9492 0-5.3711-1.1719-7.2656-3.5156-1.8867-2.3438-2.8281-5.3594-2.8281-9.0469s0.94141-6.7031 2.8281-9.0469c1.8945-2.3438 4.3164-3.5156 7.2656-3.5156 1.6562 0 3.1172 0.33594 4.3906 1 1.2812 0.65625 2.4453 1.6836 3.5 3.0781zm-5.0469 15.484c1.6445 0 2.8945-0.59766 3.75-1.7969 0.86328-1.1953 1.2969-2.9297 1.2969-5.2031 0-2.2812-0.43359-4.0195-1.2969-5.2188-0.85547-1.1953-2.1055-1.7969-3.75-1.7969-1.625 0-2.8711 0.60156-3.7344 1.7969-0.85547 1.1992-1.2812 2.9375-1.2812 5.2188 0 2.2734 0.42578 4.0078 1.2812 5.2031 0.86328 1.1992 2.1094 1.7969 3.7344 1.7969z"/>
  </symbol>
  <symbol id="e" overflow="visible">
   <path d="m16.406-4.9375c1.6328 0 2.8828-0.59766 3.75-1.7969 0.86328-1.1953 1.2969-2.9297 1.2969-5.2031 0-2.2812-0.43359-4.0195-1.2969-5.2188-0.86719-1.1953-2.1172-1.7969-3.75-1.7969-1.6367 0-2.8906 0.60547-3.7656 1.8125-0.875 1.1992-1.3125 2.9336-1.3125 5.2031 0 2.2617 0.4375 3.9961 1.3125 5.2031 0.875 1.1992 2.1289 1.7969 3.7656 1.7969zm-5.0781-15.484c1.0508-1.3945 2.2188-2.4219 3.5-3.0781 1.2812-0.66406 2.7539-1 4.4219-1 2.9453 0 5.3672 1.1719 7.2656 3.5156 1.8945 2.3438 2.8438 5.3594 2.8438 9.0469s-0.94922 6.7031-2.8438 9.0469c-1.8984 2.3438-4.3203 3.5156-7.2656 3.5156-1.668 0-3.1406-0.33594-4.4219-1s-2.4492-1.6914-3.5-3.0781v3.4531h-7.6562v-33.234h7.6562z"/>
  </symbol>
  <symbol id="d" overflow="visible">
   <path d="m0.53125-23.922h7.6562l6.4219 16.234 5.4688-16.234h7.6562l-10.062 26.188c-1.0117 2.6641-2.1953 4.5234-3.5469 5.5781-1.3438 1.0625-3.1211 1.5938-5.3281 1.5938h-4.4219v-5.0156h2.3906c1.3008 0 2.2422-0.21094 2.8281-0.625 0.59375-0.40625 1.0547-1.1484 1.3906-2.2188l0.20312-0.65625z"/>
  </symbol>
  <symbol id="c" overflow="visible">
   <path d="m16.797-19.547c1.2891 0 2.2695-0.28125 2.9375-0.84375 0.67578-0.57031 1.0156-1.4141 1.0156-2.5312 0-1.0938-0.33984-1.9258-1.0156-2.5-0.66797-0.58203-1.6484-0.875-2.9375-0.875h-4.5625v6.75zm0.26562 13.953c1.6562 0 2.8984-0.34766 3.7344-1.0469 0.83203-0.69531 1.25-1.7539 1.25-3.1719 0-1.375-0.41797-2.4062-1.25-3.0938-0.82422-0.69531-2.0703-1.0469-3.7344-1.0469h-4.8281v8.3594zm7.6562-11.469c1.7578 0.51172 3.125 1.4609 4.0938 2.8438 0.96875 1.375 1.4531 3.0703 1.4531 5.0781 0 3.0742-1.043 5.3672-3.125 6.875-2.0742 1.5117-5.2305 2.2656-9.4688 2.2656h-13.656v-31.891h12.344c4.4258 0 7.6328 0.67188 9.625 2.0156 1.9883 1.3359 2.9844 3.4766 2.9844 6.4219 0 1.5547-0.36719 2.875-1.0938 3.9688-0.73047 1.0859-1.7812 1.8906-3.1562 2.4219z"/>
  </symbol>
  <symbol id="k" overflow="visible">
   <path d="m23-23.172v6.2344c-1.0312-0.71875-2.0742-1.2422-3.125-1.5781-1.043-0.34375-2.125-0.51562-3.25-0.51562-2.1367 0-3.8047 0.625-5 1.875-1.1875 1.2422-1.7812 2.9805-1.7812 5.2188 0 2.2305 0.59375 3.9688 1.7812 5.2188 1.1953 1.25 2.8633 1.875 5 1.875 1.1953 0 2.332-0.17578 3.4062-0.53125 1.0703-0.36328 2.0625-0.89453 2.9688-1.5938v6.2656c-1.1875 0.4375-2.4023 0.76562-3.6406 0.98438-1.2305 0.22656-2.4648 0.34375-3.7031 0.34375-4.3125 0-7.6875-1.1094-10.125-3.3281s-3.6562-5.2969-3.6562-9.2344c0-3.9453 1.2188-7.0234 3.6562-9.2344 2.4375-2.2188 5.8125-3.3281 10.125-3.3281 1.25 0 2.4844 0.10938 3.7031 0.32812s2.4297 0.55469 3.6406 1z"/>
  </symbol>
  <symbol id="j" overflow="visible">
   <path d="m3.6719-23.922h7.6562v23.922h-7.6562zm0-9.3125h7.6562v6.2344h-7.6562z"/>
  </symbol>
  <symbol id="i" overflow="visible">
   <path d="m22.359-23.172v5.7969c-1.6367-0.67578-3.2148-1.1875-4.7344-1.5312-1.5234-0.34375-2.9609-0.51562-4.3125-0.51562-1.4609 0-2.543 0.18359-3.25 0.54688-0.69922 0.36719-1.0469 0.92188-1.0469 1.6719 0 0.61719 0.26562 1.0898 0.79688 1.4219 0.53125 0.32422 1.4883 0.5625 2.875 0.71875l1.3438 0.1875c3.9141 0.5 6.5508 1.3242 7.9062 2.4688 1.3516 1.1367 2.0312 2.9219 2.0312 5.3594 0 2.5547-0.94531 4.4688-2.8281 5.75-1.875 1.2812-4.6797 1.9219-8.4062 1.9219-1.5859 0-3.2188-0.125-4.9062-0.375s-3.4219-0.625-5.2031-1.125v-5.8125c1.5195 0.74219 3.082 1.2969 4.6875 1.6719 1.6016 0.36719 3.2344 0.54688 4.8906 0.54688 1.4883 0 2.6094-0.20312 3.3594-0.60938 0.75781-0.41406 1.1406-1.0312 1.1406-1.8438 0-0.6875-0.26172-1.1953-0.78125-1.5312-0.52344-0.33203-1.5586-0.59375-3.1094-0.78125l-1.3438-0.17188c-3.4062-0.42578-5.793-1.2109-7.1562-2.3594-1.3672-1.1562-2.0469-2.9102-2.0469-5.2656 0-2.5312 0.86719-4.4062 2.6094-5.625 1.7383-1.2266 4.3984-1.8438 7.9844-1.8438 1.4062 0 2.8828 0.10938 4.4375 0.32812 1.5508 0.21094 3.2383 0.54297 5.0625 1z"/>
  </symbol>
 </defs>
 <g>
  <path d="m525.52 455.48c-20.141-45.633-17.246-83.152-14.438-119.43 3.0547-39.516 5.9414-76.824-21.262-118.1-21.973-33.312-47.301-44.16-57.172-47.277-26.016-8.1914-57.953-4.6445-81.383 8.6875-23.414-13.336-55.352-16.895-81.383-8.6797-9.8711 3.1055-35.203 13.965-57.172 47.266-27.203 41.273-24.316 78.582-21.262 118.1 2.8086 36.277 5.7031 73.805-14.438 119.44-10.266 23.25-22.594 39.645-31.598 51.625-10.598 14.098-18.969 25.242-11.199 35.832 3.3672 4.5938 9.0117 7.3047 16.773 8.0586 30.258 2.9492 97.379-24.254 144.95-68.047 1.7344-1.5938 4.0234-3.2031 6.3516-4.875 1.7422-1.2422 3.5-2.5195 5.1875-3.8398 0.29688 0.16797 0.54297 0.30469 0.85938 0.48047 10.785 6.0859 27.086 15.281 41.664 15.281 15.863 0 31.168-8.9531 41.293-14.875 0.57812-0.33984 1.0586-0.61328 1.5938-0.92578 2.0664 1.4102 4.2969 2.7305 6.4844 4.0234 2.7305 1.6172 5.8281 3.457 7.2109 4.7266 45.219 41.625 107.99 68.277 140.18 68.277 1.6719 0 3.2734-0.078124 4.7695-0.21875 7.7617-0.75391 13.406-3.4648 16.773-8.0586 7.7695-10.586-0.60547-21.727-11.207-35.84-8.9922-11.973-21.332-28.371-31.586-51.629zm-136.06 0.5625c-0.097656 0.050781-0.14062 0.15625-0.22656 0.21094-1.8555 0.92578-4.0938 2.1953-6.7734 3.7617-8.4961 4.9766-21.332 12.484-32.453 12.484-9.9844 0-24.438-8.1562-33.074-13.02-2.6875-1.5234-4.8984-2.7383-6.5703-3.5508-33.625-19.059-55.344-55.59-55.344-93.152 0-12.172 1.8828-24.035 5.6094-35.367 18.156-4.4375 44.391-33.863 56.402-48.344 75.957 49.035 109.11 56.832 126.18 52.727 2.8594 10.035 4.3047 20.422 4.3047 30.984 0.007813 44.668-31.273 78.172-58.051 93.266zm28.98 14.043c-2.4141-2.2227-5.4961-4.1484-8.8008-6.1172 34.02-24 55.379-62.441 55.379-101.2 0-15.855-2.8281-31.367-8.3906-46.113-0.98828-2.6172-3.1602-4.5938-5.8555-5.3359-2.6758-0.73438-5.5742-0.15625-7.7695 1.5742-4.5078 3.5977-26.73 10.344-123.01-52.781-3.7969-2.4844-8.8555-1.6641-11.664 1.8906-21.762 27.535-44.012 46.461-50.941 48.441-1.9688-0.69141-4.1484-0.67188-6.1172 0.097656-2.2852 0.90234-4.0781 2.7031-4.9688 4.9805-5.8281 15.008-8.7852 30.906-8.7852 47.25 0 39.699 20.738 78.363 53.715 101.72-2.5039 1.793-5.0312 3.6484-7.1406 5.6016-53.898 49.613-123.91 68.82-135.08 62.957 1.1797-3.1484 6.2461-9.8867 10.395-15.418 9.5117-12.645 22.539-29.984 33.617-55.074 21.918-49.664 18.707-91.211 15.871-127.86-2.9414-38.02-5.4766-70.859 18.426-107.11 18.883-28.629 39.742-37.676 47.828-40.223 23.082-7.2969 51.73-3.457 71.277 9.5547 2.9414 1.9531 6.7461 1.9531 9.6875 0 19.547-12.992 48.188-16.836 71.27-9.5625 8.0938 2.5547 28.953 11.594 47.828 40.234 23.906 36.262 21.367 69.09 18.426 107.11-2.8359 36.645-6.0469 78.199 15.871 127.86 11.078 25.086 24.105 42.422 33.617 55.074 4.1289 5.4844 9.1445 12.172 10.379 15.348-11.793 5.6797-81.398-13.527-135.06-62.902z"/>
  <path d="m527.23 250.84c1.6562 1.8555 4.0273 2.9141 6.5195 2.9141h52.5c4.4961 0 8.2617-3.4141 8.707-7.875l17.5-175c0.16797-1.6445-0.14062-3.3086-0.88281-4.7852l-17.5-35c-1.207-2.4141-3.4648-4.1406-6.1094-4.6641l-43.75-8.75c-1.5742-0.30469-3.2031-0.18359-4.707 0.35938l-94.266 34.273-67.91-8.4883c-2.5117-0.28906-4.9961 0.46484-6.8789 2.1172-1.875 1.6641-2.9531 4.0508-2.9531 6.5625v87.5c0 2.5117 1.0781 4.8984 2.957 6.5625 1.8828 1.6523 4.3672 2.4336 6.8789 2.1172l67.91-8.4883 87.805 31.922-7.9883 71.918c-0.28125 2.4727 0.50781 4.9492 2.168 6.8047zm-142.23-188.42 52.5 6.5625v54.555l-52.5 6.5625zm70 62.711v-57.75l88.191-32.07 37.152 7.4375 14.453 28.91-16.465 164.6h-34.809l7.6641-69.039c0.44531-4.0156-1.9062-7.8125-5.7031-9.1875z"/>
  <path d="m116.31 233.69c1.707 1.7031 3.9492 2.5625 6.1875 2.5625s4.4805-0.85938 6.1875-2.5625l46.312-46.316 11.312 11.312c3.4219 3.4219 8.9531 3.4219 12.371 0l122.5-122.5c3.4219-3.4219 3.4219-8.9531 0-12.371l-43.75-43.75c-3.4219-3.4219-8.9531-3.4219-12.371 0l-175 175c-3.4219 3.4219-3.4219 8.9531 0 12.371zm154.94-195.07 31.379 31.379-22.629 22.629-20.062-20.062-12.371 12.371 20.062 20.062-13.879 13.879-20.062-20.062-12.371 12.371 20.062 20.062-13.879 13.879-20.062-20.062-12.371 12.371 20.062 20.062-22.629 22.629-11.312-11.312c-3.4219-3.4219-8.9531-3.4219-12.371 0l-46.316 46.312-13.879-13.879z"/>
  <path d="m586.25 358.75h26.25v17.5h-26.25z"/>
  <path d="m553.81 300.06 17.496-17.496 12.375 12.375-17.496 17.496z"/>
  <path d="m553.81 434.94 12.375-12.375 17.496 17.496-12.375 12.375z"/>
  <path d="m87.5 367.5h26.25v17.5h-26.25z"/>
  <path d="m116.31 303.69 12.375-12.375 17.496 17.496-12.375 12.375z"/>
  <path d="m116.31 448.81 17.496-17.496 12.375 12.375-17.496 17.496z"/>
  <path d="m577.5 96.25c0-19.301-15.699-35-35-35s-35 15.699-35 35 15.699 35 35 35 35-15.699 35-35zm-35 17.5c-9.6523 0-17.5-7.8477-17.5-17.5s7.8477-17.5 17.5-17.5 17.5 7.8477 17.5 17.5-7.8477 17.5-17.5 17.5z"/>
  <use x="70" y="691.25" xlink:href="#l"/>
  <use x="102.109375" y="691.25" xlink:href="#b"/>
  <use x="123.683594" y="691.25" xlink:href="#a"/>
  <use x="153.355469" y="691.25" xlink:href="#h"/>
  <use x="182.878906" y="691.25" xlink:href="#g"/>
  <use x="203.792969" y="691.25" xlink:href="#a"/>
  <use x="233.464844" y="691.25" xlink:href="#f"/>
  <use x="280.011719" y="691.25" xlink:href="#e"/>
  <use x="311.328125" y="691.25" xlink:href="#d"/>
  <use x="355.078125" y="691.25" xlink:href="#c"/>
  <use x="388.425781" y="691.25" xlink:href="#a"/>
  <use x="418.097656" y="691.25" xlink:href="#k"/>
  <use x="444.03125" y="691.25" xlink:href="#b"/>
  <use x="465.609375" y="691.25" xlink:href="#j"/>
  <use x="480.605469" y="691.25" xlink:href="#i"/>
 </g>
</svg>
