<?xml version="1.0" encoding="UTF-8"?>
<svg width="700pt" height="700pt" version="1.1" viewBox="0 0 700 700" xmlns="http://www.w3.org/2000/svg" xmlns:xlink="http://www.w3.org/1999/xlink">
 <defs>
  <symbol id="l" overflow="visible">
   <path d="m29.312-1.75c-1.5117 0.78125-3.0898 1.3711-4.7344 1.7656-1.6367 0.40625-3.3398 0.60938-5.1094 0.60938-5.3125 0-9.5273-1.4844-12.641-4.4531-3.1055-2.9688-4.6562-7-4.6562-12.094s1.5508-9.125 4.6562-12.094c3.1133-2.9688 7.3281-4.4531 12.641-4.4531 1.7695 0 3.4727 0.19922 5.1094 0.59375 1.6445 0.39844 3.2227 0.99219 4.7344 1.7812v6.5938c-1.5312-1.0391-3.0391-1.8008-4.5156-2.2812-1.4805-0.48828-3.0391-0.73438-4.6719-0.73438-2.9375 0-5.2461 0.94531-6.9219 2.8281-1.6797 1.875-2.5156 4.4648-2.5156 7.7656 0 3.293 0.83594 5.8828 2.5156 7.7656 1.6758 1.875 3.9844 2.8125 6.9219 2.8125 1.6328 0 3.1914-0.23828 4.6719-0.71875 1.4766-0.48828 2.9844-1.2539 4.5156-2.2969z"/>
  </symbol>
  <symbol id="j" overflow="visible">
   <path d="m21.453-17.406c-0.67969-0.3125-1.3516-0.53906-2.0156-0.6875-0.65625-0.15625-1.3203-0.23438-1.9844-0.23438-1.9688 0-3.4844 0.63281-4.5469 1.8906-1.0547 1.2617-1.5781 3.0703-1.5781 5.4219v11.016h-7.6562v-23.922h7.6562v3.9219c0.97656-1.5625 2.1016-2.7031 3.375-3.4219 1.2812-0.71875 2.8125-1.0781 4.5938-1.0781 0.25 0 0.52344 0.011719 0.82812 0.03125 0.30078 0.023438 0.73438 0.070312 1.2969 0.14062z"/>
  </symbol>
  <symbol id="e" overflow="visible">
   <path d="m27.562-12.031v2.1875h-17.891c0.1875 1.793 0.83203 3.1367 1.9375 4.0312 1.1133 0.89844 2.6719 1.3438 4.6719 1.3438 1.6016 0 3.25-0.23438 4.9375-0.70312 1.6875-0.47656 3.4219-1.2031 5.2031-2.1719v5.8906c-1.8047 0.6875-3.6094 1.2031-5.4219 1.5469-1.8125 0.35156-3.6211 0.53125-5.4219 0.53125-4.3359 0-7.7031-1.0977-10.109-3.2969-2.3984-2.207-3.5938-5.2969-3.5938-9.2656 0-3.9062 1.1758-6.9727 3.5312-9.2031 2.3633-2.2383 5.6094-3.3594 9.7344-3.3594 3.7578 0 6.7695 1.1367 9.0312 3.4062 2.2578 2.2617 3.3906 5.2812 3.3906 9.0625zm-7.8594-2.5312c0-1.457-0.42969-2.6289-1.2812-3.5156-0.84375-0.89453-1.9492-1.3438-3.3125-1.3438-1.4922 0-2.6992 0.41797-3.625 1.25-0.91797 0.83594-1.4922 2.0391-1.7188 3.6094z"/>
  </symbol>
  <symbol id="a" overflow="visible">
   <path d="m14.391-10.766c-1.5938 0-2.793 0.27344-3.5938 0.8125-0.80469 0.54297-1.2031 1.3398-1.2031 2.3906 0 0.96875 0.32031 1.7305 0.96875 2.2812 0.64453 0.54297 1.5469 0.8125 2.7031 0.8125 1.4375 0 2.6445-0.51562 3.625-1.5469 0.98828-1.0312 1.4844-2.3203 1.4844-3.875v-0.875zm11.688-2.8906v13.656h-7.7031v-3.5469c-1.0312 1.4492-2.1875 2.5078-3.4688 3.1719s-2.8398 1-4.6719 1c-2.4805 0-4.4961-0.72266-6.0469-2.1719-1.543-1.4453-2.3125-3.3203-2.3125-5.625 0-2.8125 0.96094-4.8672 2.8906-6.1719 1.9375-1.3125 4.9688-1.9688 9.0938-1.9688h4.5156v-0.60938c0-1.207-0.48047-2.0938-1.4375-2.6562-0.94922-0.5625-2.4375-0.84375-4.4688-0.84375-1.6367 0-3.1562 0.16797-4.5625 0.5-1.4062 0.32422-2.7188 0.8125-3.9375 1.4688v-5.8281c1.6445-0.40625 3.2891-0.70703 4.9375-0.90625 1.6562-0.20703 3.3047-0.3125 4.9531-0.3125 4.3203 0 7.4375 0.85547 9.3438 2.5625 1.9141 1.6992 2.875 4.4609 2.875 8.2812z"/>
  </symbol>
  <symbol id="b" overflow="visible">
   <path d="m12.031-30.719v6.7969h7.875v5.4688h-7.875v10.141c0 1.1172 0.21875 1.8711 0.65625 2.2656 0.4375 0.38672 1.3125 0.57812 2.625 0.57812h3.9375v5.4688h-6.5625c-3.0234 0-5.1641-0.62891-6.4219-1.8906-1.2617-1.2578-1.8906-3.3984-1.8906-6.4219v-10.141h-3.7969v-5.4688h3.7969v-6.7969z"/>
  </symbol>
  <symbol id="i" overflow="visible">
   <path d="m19.953-20.422v-12.812h7.6875v33.234h-7.6875v-3.4531c-1.0547 1.4062-2.2148 2.4375-3.4844 3.0938-1.2734 0.65625-2.7422 0.98438-4.4062 0.98438-2.9492 0-5.3711-1.1719-7.2656-3.5156-1.8867-2.3438-2.8281-5.3594-2.8281-9.0469s0.94141-6.7031 2.8281-9.0469c1.8945-2.3438 4.3164-3.5156 7.2656-3.5156 1.6562 0 3.1172 0.33594 4.3906 1 1.2812 0.65625 2.4453 1.6836 3.5 3.0781zm-5.0469 15.484c1.6445 0 2.8945-0.59766 3.75-1.7969 0.86328-1.1953 1.2969-2.9297 1.2969-5.2031 0-2.2812-0.43359-4.0195-1.2969-5.2188-0.85547-1.1953-2.1055-1.7969-3.75-1.7969-1.625 0-2.8711 0.60156-3.7344 1.7969-0.85547 1.1992-1.2812 2.9375-1.2812 5.2188 0 2.2734 0.42578 4.0078 1.2812 5.2031 0.86328 1.1992 2.1094 1.7969 3.7344 1.7969z"/>
  </symbol>
  <symbol id="h" overflow="visible">
   <path d="m16.406-4.9375c1.6328 0 2.8828-0.59766 3.75-1.7969 0.86328-1.1953 1.2969-2.9297 1.2969-5.2031 0-2.2812-0.43359-4.0195-1.2969-5.2188-0.86719-1.1953-2.1172-1.7969-3.75-1.7969-1.6367 0-2.8906 0.60547-3.7656 1.8125-0.875 1.1992-1.3125 2.9336-1.3125 5.2031 0 2.2617 0.4375 3.9961 1.3125 5.2031 0.875 1.1992 2.1289 1.7969 3.7656 1.7969zm-5.0781-15.484c1.0508-1.3945 2.2188-2.4219 3.5-3.0781 1.2812-0.66406 2.7539-1 4.4219-1 2.9453 0 5.3672 1.1719 7.2656 3.5156 1.8945 2.3438 2.8438 5.3594 2.8438 9.0469s-0.94922 6.7031-2.8438 9.0469c-1.8984 2.3438-4.3203 3.5156-7.2656 3.5156-1.668 0-3.1406-0.33594-4.4219-1s-2.4492-1.6914-3.5-3.0781v3.4531h-7.6562v-33.234h7.6562z"/>
  </symbol>
  <symbol id="d" overflow="visible">
   <path d="m0.53125-23.922h7.6562l6.4219 16.234 5.4688-16.234h7.6562l-10.062 26.188c-1.0117 2.6641-2.1953 4.5234-3.5469 5.5781-1.3438 1.0625-3.1211 1.5938-5.3281 1.5938h-4.4219v-5.0156h2.3906c1.3008 0 2.2422-0.21094 2.8281-0.625 0.59375-0.40625 1.0547-1.1484 1.3906-2.2188l0.20312-0.65625z"/>
  </symbol>
  <symbol id="c" overflow="visible">
   <path d="m0.21875-31.891h29.391v6.2188h-10.578v25.672h-8.2188v-25.672h-10.594z"/>
  </symbol>
  <symbol id="g" overflow="visible">
   <path d="m27.734-14.562v14.562h-7.7031v-11.109c0-2.0938-0.046875-3.5312-0.14062-4.3125-0.085937-0.78125-0.24219-1.3594-0.46875-1.7344-0.30469-0.5-0.71094-0.88281-1.2188-1.1562-0.51172-0.28125-1.0938-0.42188-1.75-0.42188-1.5938 0-2.8516 0.61719-3.7656 1.8438-0.90625 1.2305-1.3594 2.9375-1.3594 5.125v11.766h-7.6562v-33.234h7.6562v12.812c1.1445-1.3945 2.3633-2.4219 3.6562-3.0781 1.3008-0.66406 2.7383-1 4.3125-1 2.7578 0 4.8516 0.85156 6.2812 2.5469 1.4375 1.6875 2.1562 4.1523 2.1562 7.3906z"/>
  </symbol>
  <symbol id="f" overflow="visible">
   <path d="m3.6719-23.922h7.6562v23.922h-7.6562zm0-9.3125h7.6562v6.2344h-7.6562z"/>
  </symbol>
  <symbol id="k" overflow="visible">
   <path d="m23-23.172v6.2344c-1.0312-0.71875-2.0742-1.2422-3.125-1.5781-1.043-0.34375-2.125-0.51562-3.25-0.51562-2.1367 0-3.8047 0.625-5 1.875-1.1875 1.2422-1.7812 2.9805-1.7812 5.2188 0 2.2305 0.59375 3.9688 1.7812 5.2188 1.1953 1.25 2.8633 1.875 5 1.875 1.1953 0 2.332-0.17578 3.4062-0.53125 1.0703-0.36328 2.0625-0.89453 2.9688-1.5938v6.2656c-1.1875 0.4375-2.4023 0.76562-3.6406 0.98438-1.2305 0.22656-2.4648 0.34375-3.7031 0.34375-4.3125 0-7.6875-1.1094-10.125-3.3281s-3.6562-5.2969-3.6562-9.2344c0-3.9453 1.2188-7.0234 3.6562-9.2344 2.4375-2.2188 5.8125-3.3281 10.125-3.3281 1.25 0 2.4844 0.10938 3.7031 0.32812s2.4297 0.55469 3.6406 1z"/>
  </symbol>
 </defs>
 <g>
  <path d="m455 455c9.2812 0 18.184-3.6875 24.75-10.25 6.5625-6.5664 10.25-15.469 10.25-24.75v-159.51c22.75-6.7695 43.426-19.172 60.113-36.051 30.012-33.074 36.137-84.438 15.051-133.96-16.453-39.465-48.391-61.078-95.289-64.227h-276.68l-104.3-17.5c-2.543-0.40625-5.1367 0.33203-7.0859 2.0117-1.9688 1.6836-3.0898 4.1484-3.0625 6.7383v245c-0.046875 2.6406 1.0977 5.1602 3.1211 6.8594 2.0195 1.6992 4.6992 2.3945 7.293 1.8906l103.34-17.5h123.46c6.707 0 13.141 2.6641 17.883 7.4062s7.4062 11.176 7.4062 17.883v140.96c0 9.2812 3.6875 18.184 10.25 24.75 6.5664 6.5625 15.469 10.25 24.75 10.25h26.25v71.926c0 16.102 8.75 24.324 27.387 24.324h106.57c25.289 0 41.039-16.273 41.039-42.523v-63.527c7.0742-1.2344 13.523-4.832 18.289-10.203 4.7656-5.3711 7.5742-12.199 7.9609-19.371-0.14062-7.5781-3.2891-14.785-8.75-20.039v-36.836h-17.5v27.301c-5.75-1.3984-11.75-1.3984-17.5 0v-27.301h-17.5v36.836c-5.4609 5.2539-8.6094 12.461-8.75 20.039 0.38672 7.1719 3.1953 14 7.9609 19.371 4.7656 5.3711 11.215 8.9688 18.289 10.203v63.523c0 20.652-12.773 25.027-23.539 25.027h-106.57c-9.8867 0-9.8867-1.4883-9.8867-6.8242v-71.926zm96.25-39.375c0-7.0859 8.0508-13.125 17.5-13.125s17.5 6.0391 17.5 13.125-8.0508 13.125-17.5 13.125-17.5-6.0391-17.5-13.125zm-350-371.88h17.5v192.5h-17.5zm-105 208.43v-224.35l87.5 14.613v194.95l-81.289 13.738zm219.71-15.926h-79.711v-192.5h233.01c39.727 2.7109 65.801 20.211 79.801 53.551 18.023 43.137 13.477 87.5-11.898 115.41v-0.003906c-15.965 15.852-35.969 27.02-57.84 32.289-4.0703 0.91797-6.9258 4.5781-6.8242 8.75v148.75h-113.75v-123.46c0-11.348-4.5078-22.234-12.531-30.258s-18.91-12.531-30.258-12.531zm42.789 183.75h113.75c0 4.6406-1.8438 9.0938-5.125 12.375s-7.7344 5.125-12.375 5.125h-78.75c-4.6406 0-9.0938-1.8438-12.375-5.125s-5.125-7.7344-5.125-12.375z"/>
  <path d="m415.62 262.5c-22.488 0-39.375 11.289-39.375 26.25s16.887 26.25 39.375 26.25 39.375-11.289 39.375-26.25-16.887-26.25-39.375-26.25zm0 35c-14.176 0-21.875-6.2109-21.875-8.75s7.6992-8.75 21.875-8.75 21.875 6.2109 21.875 8.75-7.6992 8.75-21.875 8.75z"/>
  <path d="m415.62 323.75c-22.488 0-39.375 11.289-39.375 26.25s16.887 26.25 39.375 26.25 39.375-11.289 39.375-26.25-16.887-26.25-39.375-26.25zm0 35c-14.176 0-21.875-6.2109-21.875-8.75s7.6992-8.75 21.875-8.75 21.875 6.2109 21.875 8.75-7.6992 8.75-21.875 8.75z"/>
  <path d="m481.25 144.38c-0.61719-20.293-9.2539-39.516-24.012-53.453-14.762-13.941-34.441-21.465-54.738-20.922-20.297-0.54297-39.977 6.9805-54.738 20.922-14.758 13.938-23.395 33.16-24.012 53.453-0.003906 3.5742 0.26172 7.1406 0.78906 10.676 3.3516 18.125 13.027 34.477 27.301 46.141 14.277 11.664 32.227 17.887 50.66 17.559 20.297 0.54297 39.977-6.9805 54.738-20.922 14.758-13.938 23.395-33.16 24.012-53.453zm-78.75-56.875c17.699-0.10547 34.641 7.1914 46.727 20.125l-104.48 55.648c-1.3594-3.4961-2.3281-7.1367-2.8867-10.848-0.42578-2.6641-0.62891-5.3555-0.61328-8.0508 0.61719-15.652 7.4062-30.422 18.883-41.082 11.48-10.66 26.711-16.336 42.367-15.793zm-49 90.914 105.44-55.914c3.1328 6.8711 4.7734 14.324 4.8125 21.875-0.61719 15.652-7.4062 30.422-18.883 41.082-11.48 10.66-26.711 16.336-42.367 15.793-18.93 0.11328-36.914-8.2695-49-22.836z"/>
  <use x="70" y="691.25" xlink:href="#l"/>
  <use x="102.109375" y="691.25" xlink:href="#j"/>
  <use x="123.683594" y="691.25" xlink:href="#e"/>
  <use x="153.355469" y="691.25" xlink:href="#a"/>
  <use x="182.878906" y="691.25" xlink:href="#b"/>
  <use x="203.792969" y="691.25" xlink:href="#e"/>
  <use x="233.464844" y="691.25" xlink:href="#i"/>
  <use x="280.011719" y="691.25" xlink:href="#h"/>
  <use x="311.328125" y="691.25" xlink:href="#d"/>
  <use x="355.078125" y="691.25" xlink:href="#c"/>
  <use x="384.921875" y="691.25" xlink:href="#g"/>
  <use x="416.070312" y="691.25" xlink:href="#f"/>
  <use x="431.066406" y="691.25" xlink:href="#b"/>
  <use x="451.980469" y="691.25" xlink:href="#f"/>
  <use x="466.976562" y="691.25" xlink:href="#k"/>
  <use x="492.910156" y="691.25" xlink:href="#g"/>
  <use x="524.054688" y="691.25" xlink:href="#a"/>
  <use x="553.578125" y="691.25" xlink:href="#d"/>
  <use x="582.097656" y="691.25" xlink:href="#a"/>
  <use x="626.851562" y="691.25" xlink:href="#c"/>
  <use x="656.695312" y="691.25" xlink:href="#a"/>
  <use x="686.21875" y="691.25" xlink:href="#b"/>
 </g>
</svg>
