<svg xmlns="http://www.w3.org/2000/svg" width="112.5" viewBox="0 0 112.5 112.5" height="112.5" version="1.0"><path fill="#494646" d="M 10.234375 34.421875 L 10.234375 91.308594 C 10.234375 95.554688 13.675781 98.996094 17.921875 98.996094 L 34.832031 98.996094 L 34.832031 92.847656 L 19.457031 92.847656 C 17.757812 92.847656 16.382812 91.472656 16.382812 89.773438 L 34.832031 89.773438 L 34.832031 86.695312 L 16.382812 86.695312 L 16.382812 85.160156 L 34.832031 85.160156 L 34.832031 82.085938 L 16.382812 82.085938 L 16.382812 80.546875 L 34.832031 80.546875 L 34.832031 77.472656 L 16.382812 77.472656 L 16.382812 75.933594 L 34.832031 75.933594 L 34.832031 72.859375 L 16.382812 72.859375 L 16.382812 71.320312 L 34.832031 71.320312 L 34.832031 68.246094 L 16.382812 68.246094 L 16.382812 66.710938 L 34.832031 66.710938 L 34.832031 63.632812 L 16.382812 63.632812 L 16.382812 62.097656 L 34.832031 62.097656 L 34.832031 59.023438 L 16.382812 59.023438 L 16.382812 57.484375 L 34.832031 57.484375 L 34.832031 54.410156 L 16.382812 54.410156 L 16.382812 52.871094 L 34.832031 52.871094 L 34.832031 49.796875 L 16.382812 49.796875 L 16.382812 48.257812 L 34.832031 48.257812 L 34.832031 45.183594 L 16.382812 45.183594 L 16.382812 43.648438 L 34.832031 43.648438 L 34.832031 40.570312 L 16.382812 40.570312 L 16.382812 39.035156 L 34.832031 39.035156 L 34.832031 35.960938 L 16.382812 35.960938 C 16.382812 34.261719 17.757812 32.882812 19.457031 32.882812 L 34.832031 32.882812 L 34.832031 26.734375 L 17.921875 26.734375 C 13.675781 26.734375 10.234375 30.175781 10.234375 34.421875 Z M 10.234375 34.421875"/><path fill="#494646" d="M 90.183594 74.398438 C 89.414062 74.398438 88.664062 74.476562 87.9375 74.609375 L 79.207031 57.511719 L 90.183594 6.746094 L 71.734375 42.878906 L 53.28125 6.746094 L 64.257812 57.515625 L 55.527344 74.613281 C 54.800781 74.476562 54.050781 74.398438 53.28125 74.398438 C 46.492188 74.398438 40.984375 79.90625 40.984375 86.699219 C 40.984375 93.492188 46.492188 99 53.28125 99 C 60.074219 99 65.582031 93.492188 65.582031 86.699219 C 65.582031 83.132812 64.054688 79.933594 61.632812 77.683594 L 66.492188 67.964844 C 67.605469 65.746094 69.53125 64.199219 71.734375 63.472656 C 73.9375 64.199219 75.863281 65.746094 76.972656 67.964844 L 81.832031 77.683594 C 79.410156 79.933594 77.882812 83.132812 77.882812 86.699219 C 77.882812 93.492188 83.390625 99 90.183594 99 C 96.976562 99 102.484375 93.492188 102.484375 86.699219 C 102.484375 79.90625 96.976562 74.398438 90.183594 74.398438 Z M 53.28125 94.382812 C 49.039062 94.382812 45.59375 90.941406 45.59375 86.695312 C 45.59375 82.453125 49.039062 79.007812 53.28125 79.007812 C 57.527344 79.007812 60.96875 82.453125 60.96875 86.695312 C 60.96875 90.941406 57.527344 94.382812 53.28125 94.382812 Z M 73.269531 55.945312 L 73.269531 59.023438 L 70.195312 59.023438 L 70.195312 55.945312 Z M 90.183594 94.382812 C 85.9375 94.382812 82.496094 90.941406 82.496094 86.695312 C 82.496094 82.453125 85.9375 79.007812 90.183594 79.007812 C 94.429688 79.007812 97.871094 82.453125 97.871094 86.695312 C 97.871094 90.941406 94.429688 94.382812 90.183594 94.382812 Z M 90.183594 94.382812"/></svg>